<svg width="300" height="100" xmlns="http://www.w3.org/2000/svg" class="iconLeft">
 <!---->
 <defs>
  <!---->
  <linearGradient y2="0%" x2="100%" y1="0%" x1="0%" id="5c86ca4d-8595-4d7d-934b-2ef8968a991b" gradientTransform="rotate(25)">
   <stop stop-color="#01648B" offset="0%"/>
   <stop stop-color="#5BD0A4" offset="100%"/>
  </linearGradient>
 </defs>
 <defs>
  <!---->
 </defs>

 <!---->
 <g>
  <title>background</title>
  <rect fill="none" id="canvas_background" height="102" width="302" y="-1" x="-1"/>
 </g>
 <g>
  <title>Layer 1</title>
  <g transform="matrix(2.87507, 0, 0, 2.87507, 93.4472, 124.958)" fill="#000000" id="8abae6ea-f348-46fb-8fc2-ca0098bd82d2">
   <path id="svg_2" d="m0.21,-27.171217l-0.1,-2.130005l7.2,0l-0.09,2.130005l-0.7,0l-0.28,-1.26001l-1.7,0l0,6.830036l1.28,0.31003l0,0.570009l-4.21,0l0,-0.570009l1.29,-0.31003l0,-6.830036l-1.74,0l-0.26,1.26001l-0.69,0zm10.91,6.59005l0,0q-1.74,0 -2.51,-0.950014l0,0l0,0q-0.77,-0.950016 -0.77,-2.610025l0,0l0,0q0,-1.859991 0.849999,-2.730022l0,0l0,0q0.84,-0.859985 2.29,-0.859985l0,0l0,0q1.42,0 2.080001,0.640015l0,0l0,0q0.66,0.639988 0.66,2.019997l0,0l0,0q0,0.470003 -0.04,0.85001l0,0l-4.08,0l0,0.380005l0,0q0,1.219976 0.5,1.769997l0,0l0,0q0.5,0.55002 1.45,0.55002l0,0l0,0q0.84,0 1.99,-0.320009l0,0l0.11,0.55002l0,0q-1.059999,0.709993 -2.53,0.709993l0,0zm-1.49,-4.310041l2.41,-0.139984l0,-0.309999l0,0q0,-0.760014 -0.22,-1.140018l0,0l0,0q-0.21,-0.390018 -0.77,-0.390018l0,0l0,0q-0.77,0 -1.08,0.470036l0,0l0,0q-0.3,0.470003 -0.34,1.509985l0,0zm8.64,4.170057l-3.93,0l0,-0.620028l1.139999,-0.280001l0,-8.070026l-1.139999,-0.160004l0,-0.539986l2.25,-0.549988l0.530001,0l0,9.320004l1.15,0.280001l0,0.620028zm3.92,0.139984l0,0q-1.74,0 -2.51,-0.950014l0,0l0,0q-0.77,-0.950016 -0.77,-2.610025l0,0l0,0q0,-1.859991 0.85,-2.730022l0,0l0,0q0.85,-0.859985 2.289999,-0.859985l0,0l0,0q1.43,0 2.09,0.640015l0,0l0,0q0.650002,0.639988 0.650002,2.019997l0,0l0,0q0,0.470003 -0.040001,0.85001l0,0l-4.07,0l0,0.380005l0,0q0,1.219976 0.5,1.769997l0,0l0,0q0.49,0.55002 1.440001,0.55002l0,0l0,0q0.839998,0 1.99,-0.320009l0,0l0.109999,0.55002l0,0q-1.059999,0.709993 -2.529999,0.709993l0,0zm-1.480001,-4.310041l2.400002,-0.139984l0,-0.309999l0,0q0,-0.760014 -0.210001,-1.140018l0,0l0,0q-0.219999,-0.390018 -0.779999,-0.390018l0,0l0,0q-0.77,0 -1.070002,0.470036l0,0l0,0q-0.299999,0.470003 -0.34,1.509985l0,0zm8.76,-4.410013l0,0q2.24,0 3.289999,1.089996l0,0l0,0q1.050003,1.089996 1.050003,3.020027l0,0l0,0q0,1.989998 -1.010002,3.230022l0,0l0,0q-1.009998,1.240025 -3.08,1.240025l0,0l-4.019999,0l0,-0.570009l1.209999,-0.31003l0,-6.820026l-1.219999,-0.309998l0,-0.570007l3.779999,0zm-0.059999,0.800018l0,0q-0.469999,0 -0.860001,0.079987l0,0l0,6.790028l0,0q0.640001,0.200014 1.27,0.200014l0,0l0,0q2.25,0 2.25,-3.760023l0,0l0,0q0,-1.489994 -0.709999,-2.400002l0,0l0,0q-0.710001,-0.910004 -1.950001,-0.910004l0,0zm9.130001,1.84l0,0q-0.610001,0 -1.120003,0.23999l0,0l0,4.800034l1.610001,0.30002l0,0.600008l-4.389999,0l0,-0.590029l1.139999,-0.309999l0,-4.870041l-1.139999,-0.169983l0,-0.540012l2.18,-0.529999l0.59,0l0,0.640015l0,0q0.470001,-0.310028 1.049999,-0.5l0,0l0,0q0.57,-0.190002 1.060001,-0.190002l0,0l0,0q0.299999,0 0.389999,0.019989l0,0l-0.25,2.340004l-0.82,0l-0.299999,-1.239994zm3.91,-2.050022l0,0q-0.440002,0 -0.760002,-0.299988l0,0l0,0q-0.32,-0.290009 -0.32,-0.709991l0,0l0,0q0,-0.44001 0.32,-0.749977l0,0l0,0q0.32,-0.320007 0.760002,-0.320007l0,0l0,0q0.419998,0 0.73,0.320007l0,0l0,0q0.299999,0.309967 0.299999,0.749977l0,0l0,0q0,0.419983 -0.299999,0.709991l0,0l0,0q-0.310001,0.299988 -0.73,0.299988l0,0zm1.959999,7.990074l-3.919998,0l0,-0.620028l1.149998,-0.280001l0,-4.88002l-1.149998,-0.160004l0,-0.540012l2.25,-0.529999l0.529999,0l0,6.110035l1.139999,0.280001l0,0.620028zm7.330002,-6.270073l-0.890003,0.260014l-2.239998,6.080067l-1.080002,0.130005l-2.34,-6.230061l-0.75,-0.240025l-0.02,-0.619995l3.310001,0l0,0.649994l-0.790001,0.210026l1.390003,4.129988l1.429996,-4.109999l-1,-0.230015l0,-0.649994l2.980003,0l0,0.619995zm3.59,6.410057l0,0q-1.740002,0 -2.510002,-0.950014l0,0l0,0q-0.77,-0.950016 -0.77,-2.610025l0,0l0,0q0,-1.859991 0.850002,-2.730022l0,0l0,0q0.849998,-0.859985 2.289997,-0.859985l0,0l0,0q1.43,0 2.080002,0.640015l0,0l0,0q0.66,0.639988 0.66,2.019997l0,0l0,0q0,0.470003 -0.040001,0.85001l0,0l-4.07,0l0,0.380005l0,0q0,1.219976 0.490002,1.769997l0,0l0,0q0.5,0.55002 1.449997,0.55002l0,0l0,0q0.84,0 1.990002,-0.320009l0,0l0.110001,0.55002l0,0q-1.060001,0.709993 -2.529999,0.709993l0,0zm-1.490002,-4.310041l2.41,-0.139984l0,-0.309999l0,0q0,-0.760014 -0.220001,-1.140018l0,0l0,0q-0.209999,-0.390018 -0.77,-0.390018l0,0l0,0q-0.769997,0 -1.07,0.470036l0,0l0,0q-0.299999,0.470003 -0.349998,1.509985l0,0z"/>
  </g>
  <g transform="matrix(0.461219, 0, 0, 0.461219, 36.3107, 127.07)" fill="url(#5c86ca4d-8595-4d7d-934b-2ef8968a991b)" id="a1c8ecc0-781b-479f-a39f-09a1baf620c0">
   <path id="svg_3" d="m45.057999,-168.528168c0,1.004013 0.813,1.81601 1.816002,1.81601a1.813,1.813 0 0 0 1.813999,-1.815002l0,-22.59201a1.815,1.815 0 0 0 -3.629002,0l-0.000999,22.591003zm-7.677998,2.206009a2.027,2.027 0 0 0 3.596001,-1.872009l-9.876001,-18.964996a2.026,2.026 0 0 0 -2.734001,-0.861008a2.026,2.026 0 0 0 -0.861,2.733002l9.875002,18.965012zm-5.832001,5.541992c1,0.725006 2.400002,0.506012 3.127998,-0.496002c0.728001,-1 0.506001,-2.399994 -0.494999,-3.125l-16.313999,-11.865997a2.239,2.239 0 1 0 -2.634001,3.621002l16.315001,11.865997zm-2.745001,7.957001a2.45,2.45 0 0 0 2.801001,-2.038986a2.453,2.453 0 0 0 -2.041,-2.803009l-18.733,-2.938995a2.45,2.45 0 0 0 -2.801,2.039001a2.453,2.453 0 0 0 2.040999,2.802994l18.733,2.938995zm1.406,8.899994a2.663,2.663 0 0 0 1.659,-3.380981a2.666,2.666 0 0 0 -3.379999,-1.660004l-16.799001,5.73999a2.663,2.663 0 0 0 -1.659,3.380997a2.665,2.665 0 0 0 3.379001,1.660004l16.799999,-5.740005zm5.327999,7.152008a2.874,2.874 0 1 0 -4.102999,-4.027008l-11.587,11.807007a2.875,2.875 0 0 0 4.104,4.027l11.585999,-11.806999zm8.259003,4.070999a3.087,3.087 0 0 0 -2,-3.880997a3.084,3.084 0 0 0 -3.879002,2l-4.672001,14.604004a3.087,3.087 0 0 0 5.879002,1.878998l4.672001,-14.602005zm9.906998,-0.276001a3.3,3.3 0 0 0 -3.814999,-2.686005a3.297,3.297 0 0 0 -2.685001,3.813004l2.415001,13.914009a3.3,3.3 0 0 0 3.813,2.685997a3.3,3.3 0 0 0 2.686001,-3.812996l-2.414001,-13.914009zm8.867001,-4.766998a3.512,3.512 0 0 0 -4.898998,-0.794998a3.511,3.511 0 0 0 -0.795002,4.899994l7.550003,10.475006a3.514,3.514 0 0 0 4.898994,0.796997a3.512,3.512 0 0 0 0.795006,-4.900002l-7.550003,-10.476997zm5.919998,-8.253998a3.722,3.722 0 0 0 -5.042999,1.507996a3.722,3.722 0 0 0 1.509003,5.041l10.299995,5.556992a3.722,3.722 0 0 0 5.042,-1.507996a3.724,3.724 0 0 0 -1.508995,-5.042999l-10.299004,-5.554993zm1.314003,-10.376999a3.934,3.934 0 0 0 -3.933998,3.934006a3.936,3.936 0 0 0 3.933998,3.93399l10.490997,0a3.937,3.937 0 0 0 3.933998,-3.93399a3.936,3.936 0 0 0 -3.933998,-3.934006l-10.490997,0zm24.143997,-26.106003l-9.525002,0l0,17.041a4.234,4.234 0 0 1 -4.236,4.237l-10.083,0a4.238,4.238 0 0 1 -4.236,-4.237l0,-17.041l-9.415997,0c-2.329998,0 -3.127998,-1.548996 -1.771999,-3.449005l18.056999,-25.278c1.355003,-1.899994 3.57,-1.899994 4.926003,0l18.057999,25.278c1.354996,1.900009 0.556,3.449005 -1.773003,3.449005z"/>
  </g>
 </g>
</svg>