<svg data-v-423bf9ae="" xmlns="http://www.w3.org/2000/svg" viewBox="0 0 449 106" class="iconLeft"><!----><!----><!----><g data-v-423bf9ae="" id="a110c658-fdaa-4d4f-8591-478ac10f1c97" fill="#000000" transform="matrix(5.758157253265381,0,0,5.758157253265381,115.04686737060547,2.585017442703247)"><path d="M0.21 7.27L0.11 5.14L7.31 5.14L7.22 7.27L6.52 7.27L6.24 6.01L4.54 6.01L4.54 12.84L5.82 13.15L5.82 13.72L1.61 13.72L1.61 13.15L2.90 12.84L2.90 6.01L1.16 6.01L0.90 7.27L0.21 7.27ZM11.12 13.86L11.12 13.86Q9.38 13.86 8.61 12.91L8.61 12.91L8.61 12.91Q7.84 11.96 7.84 10.30L7.84 10.30L7.84 10.30Q7.84 8.44 8.69 7.57L8.69 7.57L8.69 7.57Q9.53 6.71 10.98 6.71L10.98 6.71L10.98 6.71Q12.40 6.71 13.06 7.35L13.06 7.35L13.06 7.35Q13.72 7.99 13.72 9.37L13.72 9.37L13.72 9.37Q13.72 9.84 13.68 10.22L13.68 10.22L9.60 10.22L9.60 10.60L9.60 10.60Q9.60 11.82 10.10 12.37L10.10 12.37L10.10 12.37Q10.60 12.92 11.55 12.92L11.55 12.92L11.55 12.92Q12.39 12.92 13.54 12.60L13.54 12.60L13.65 13.15L13.65 13.15Q12.59 13.86 11.12 13.86L11.12 13.86ZM9.63 9.55L12.04 9.41L12.04 9.10L12.04 9.10Q12.04 8.34 11.82 7.96L11.82 7.96L11.82 7.96Q11.61 7.57 11.05 7.57L11.05 7.57L11.05 7.57Q10.28 7.57 9.97 8.04L9.97 8.04L9.97 8.04Q9.67 8.51 9.63 9.55L9.63 9.55ZM18.27 13.72L14.34 13.72L14.34 13.10L15.48 12.82L15.48 4.75L14.34 4.59L14.34 4.05L16.59 3.50L17.12 3.50L17.12 12.82L18.27 13.10L18.27 13.72ZM22.19 13.86L22.19 13.86Q20.45 13.86 19.68 12.91L19.68 12.91L19.68 12.91Q18.91 11.96 18.91 10.30L18.91 10.30L18.91 10.30Q18.91 8.44 19.76 7.57L19.76 7.57L19.76 7.57Q20.61 6.71 22.05 6.71L22.05 6.71L22.05 6.71Q23.48 6.71 24.14 7.35L24.14 7.35L24.14 7.35Q24.79 7.99 24.79 9.37L24.79 9.37L24.79 9.37Q24.79 9.84 24.75 10.22L24.75 10.22L20.68 10.22L20.68 10.60L20.68 10.60Q20.68 11.82 21.18 12.37L21.18 12.37L21.18 12.37Q21.67 12.92 22.62 12.92L22.62 12.92L22.62 12.92Q23.46 12.92 24.61 12.60L24.61 12.60L24.72 13.15L24.72 13.15Q23.66 13.86 22.19 13.86L22.19 13.86ZM20.71 9.55L23.11 9.41L23.11 9.10L23.11 9.10Q23.11 8.34 22.90 7.96L22.90 7.96L22.90 7.96Q22.68 7.57 22.12 7.57L22.12 7.57L22.12 7.57Q21.35 7.57 21.05 8.04L21.05 8.04L21.05 8.04Q20.75 8.51 20.71 9.55L20.71 9.55ZM29.47 5.14L29.47 5.14Q31.71 5.14 32.76 6.23L32.76 6.23L32.76 6.23Q33.81 7.32 33.81 9.25L33.81 9.25L33.81 9.25Q33.81 11.24 32.80 12.48L32.80 12.48L32.80 12.48Q31.79 13.72 29.72 13.72L29.72 13.72L25.70 13.72L25.70 13.15L26.91 12.84L26.91 6.02L25.69 5.71L25.69 5.14L29.47 5.14ZM29.41 5.94L29.41 5.94Q28.94 5.94 28.55 6.02L28.55 6.02L28.55 12.81L28.55 12.81Q29.19 13.01 29.82 13.01L29.82 13.01L29.82 13.01Q32.07 13.01 32.07 9.25L32.07 9.25L32.07 9.25Q32.07 7.76 31.36 6.85L31.36 6.85L31.36 6.85Q30.65 5.94 29.41 5.94L29.41 5.94ZM38.54 7.78L38.54 7.78Q37.93 7.78 37.42 8.02L37.42 8.02L37.42 12.82L39.03 13.12L39.03 13.72L34.64 13.72L34.64 13.13L35.78 12.82L35.78 7.95L34.64 7.78L34.64 7.24L36.82 6.71L37.41 6.71L37.41 7.35L37.41 7.35Q37.88 7.04 38.46 6.85L38.46 6.85L38.46 6.85Q39.03 6.66 39.52 6.66L39.52 6.66L39.52 6.66Q39.82 6.66 39.91 6.68L39.91 6.68L39.66 9.02L38.84 9.02L38.54 7.78ZM42.45 5.73L42.45 5.73Q42.01 5.73 41.69 5.43L41.69 5.43L41.69 5.43Q41.37 5.14 41.37 4.72L41.37 4.72L41.37 4.72Q41.37 4.28 41.69 3.97L41.69 3.97L41.69 3.97Q42.01 3.65 42.45 3.65L42.45 3.65L42.45 3.65Q42.87 3.65 43.18 3.97L43.18 3.97L43.18 3.97Q43.48 4.28 43.48 4.72L43.48 4.72L43.48 4.72Q43.48 5.14 43.18 5.43L43.18 5.43L43.18 5.43Q42.87 5.73 42.45 5.73L42.45 5.73ZM44.41 13.72L40.49 13.72L40.49 13.10L41.64 12.82L41.64 7.94L40.49 7.78L40.49 7.24L42.74 6.71L43.27 6.71L43.27 12.82L44.41 13.10L44.41 13.72ZM51.74 7.45L50.85 7.71L48.61 13.79L47.53 13.92L45.19 7.69L44.44 7.45L44.42 6.83L47.73 6.83L47.73 7.48L46.94 7.69L48.33 11.82L49.76 7.71L48.76 7.48L48.76 6.83L51.74 6.83L51.74 7.45ZM55.33 13.86L55.33 13.86Q53.59 13.86 52.82 12.91L52.82 12.91L52.82 12.91Q52.05 11.96 52.05 10.30L52.05 10.30L52.05 10.30Q52.05 8.44 52.90 7.57L52.90 7.57L52.90 7.57Q53.75 6.71 55.19 6.71L55.19 6.71L55.19 6.71Q56.62 6.71 57.27 7.35L57.27 7.35L57.27 7.35Q57.93 7.99 57.93 9.37L57.93 9.37L57.93 9.37Q57.93 9.84 57.89 10.22L57.89 10.22L53.82 10.22L53.82 10.60L53.82 10.60Q53.82 11.82 54.31 12.37L54.31 12.37L54.31 12.37Q54.81 12.92 55.76 12.92L55.76 12.92L55.76 12.92Q56.60 12.92 57.75 12.60L57.75 12.60L57.86 13.15L57.86 13.15Q56.80 13.86 55.33 13.86L55.33 13.86ZM53.84 9.55L56.25 9.41L56.25 9.10L56.25 9.10Q56.25 8.34 56.03 7.96L56.03 7.96L56.03 7.96Q55.82 7.57 55.26 7.57L55.26 7.57L55.26 7.57Q54.49 7.57 54.19 8.04L54.19 8.04L54.19 8.04Q53.89 8.51 53.84 9.55L53.84 9.55Z"></path></g><defs data-v-423bf9ae=""><linearGradient data-v-423bf9ae="" gradientTransform="rotate(25)" id="e2f27785-107c-4f84-9cf7-13c1a6407b7e" x1="0%" y1="0%" x2="100%" y2="0%"><stop data-v-423bf9ae="" offset="0%" style="stop-color: rgb(1, 100, 139); stop-opacity: 1;"></stop><stop data-v-423bf9ae="" offset="100%" style="stop-color: rgb(91, 208, 164); stop-opacity: 1;"></stop></linearGradient></defs><g data-v-423bf9ae="" id="169f56d0-aa95-4aa3-b8df-9e29ccca1e54" transform="matrix(1.0825748443603516,0,0,1.0825748443603516,-8.500652313232422,-0.8211460113525391)" stroke="none" fill="url(#e2f27785-107c-4f84-9cf7-13c1a6407b7e)"><path d="M45.058 45.104c0 1.004.813 1.816 1.816 1.816a1.813 1.813 0 0 0 1.814-1.815V22.513a1.815 1.815 0 0 0-3.629 0l-.001 22.591zM37.38 47.31a2.027 2.027 0 0 0 3.596-1.872L31.1 26.473a2.026 2.026 0 0 0-2.734-.861 2.026 2.026 0 0 0-.861 2.733L37.38 47.31zM31.548 52.852c1 .725 2.4.506 3.128-.496.728-1 .506-2.4-.495-3.125L17.867 37.365a2.239 2.239 0 1 0-2.634 3.621l16.315 11.866zM28.803 60.809a2.45 2.45 0 0 0 2.801-2.039 2.453 2.453 0 0 0-2.041-2.803L10.83 53.028a2.45 2.45 0 0 0-2.801 2.039 2.453 2.453 0 0 0 2.041 2.803l18.733 2.939zM30.209 69.709a2.663 2.663 0 0 0 1.659-3.381 2.666 2.666 0 0 0-3.38-1.66l-16.799 5.74a2.663 2.663 0 0 0-1.659 3.381 2.665 2.665 0 0 0 3.379 1.66l16.8-5.74zM35.537 76.861a2.874 2.874 0 1 0-4.103-4.027L19.847 84.641a2.875 2.875 0 0 0 4.104 4.027l11.586-11.807zM43.796 80.932a3.087 3.087 0 0 0-2-3.881 3.084 3.084 0 0 0-3.879 2l-4.672 14.604a3.087 3.087 0 0 0 5.879 1.879l4.672-14.602zM53.703 80.656a3.3 3.3 0 0 0-3.815-2.686 3.297 3.297 0 0 0-2.685 3.813l2.415 13.914a3.3 3.3 0 0 0 3.813 2.686 3.3 3.3 0 0 0 2.686-3.813l-2.414-13.914zM62.57 75.889a3.512 3.512 0 0 0-4.899-.795 3.511 3.511 0 0 0-.795 4.9l7.55 10.475a3.514 3.514 0 0 0 4.899.797 3.512 3.512 0 0 0 .795-4.9l-7.55-10.477zM68.49 67.635a3.722 3.722 0 0 0-5.043 1.508 3.722 3.722 0 0 0 1.509 5.041l10.3 5.557a3.722 3.722 0 0 0 5.042-1.508 3.724 3.724 0 0 0-1.509-5.043L68.49 67.635zM69.804 57.258a3.934 3.934 0 0 0-3.934 3.934 3.936 3.936 0 0 0 3.934 3.934h10.491a3.937 3.937 0 0 0 3.934-3.934 3.936 3.936 0 0 0-3.934-3.934H69.804zM93.948 31.152h-9.525v17.041a4.234 4.234 0 0 1-4.236 4.237H70.104a4.238 4.238 0 0 1-4.236-4.237V31.152h-9.416c-2.33 0-3.128-1.549-1.772-3.449L72.737 2.425c1.355-1.9 3.57-1.9 4.926 0l18.058 25.278c1.355 1.9.556 3.449-1.773 3.449z"></path></g><!----></svg>