<svg width="182" height="56" xmlns="http://www.w3.org/2000/svg" xmlns:xlink="http://www.w3.org/1999/xlink">
 <!-- Created with Method Draw - http://github.com/duopixel/Method-Draw/ -->
 <defs>
  <linearGradient y2="1.0293" x2="0.5" y1="-0.0293" x1="0.5" id="svg_92" xlink:href="#svg_89"/>
  <linearGradient id="svg_89">
   <stop stop-color="#ffffff" offset="0" id="svg_91"/>
   <stop stop-color="#ffffff" stop-opacity="0" offset="1" id="svg_90"/>
  </linearGradient>
  <linearGradient y2="1.04274" x2="0.5" y1="-0.04274" x1="0.5" id="svg_88" xlink:href="#svg_85"/>
  <linearGradient id="svg_85">
   <stop stop-color="#ffffff" offset="0" id="svg_87"/>
   <stop stop-color="#ffffff" stop-opacity="0" offset="1" id="svg_86"/>
  </linearGradient>
  <linearGradient y2="1.01351" x2="0.5" y1="-0.01351" x1="0.5" id="svg_84" xlink:href="#svg_81"/>
  <linearGradient id="svg_81">
   <stop stop-color="#ffffff" offset="0" id="svg_83"/>
   <stop stop-color="#ffffff" stop-opacity="0" offset="1" id="svg_82"/>
  </linearGradient>
  <radialGradient r="38.21293" fy="-48.0275" fx="48.42384" cy="-48.0275" cx="48.42384" gradientTransform="matrix(0,1.026200771331787,-1.6561124324798584,0.0009407220059074461,-27.27459716796875,-9.112606048583984)" gradientUnits="userSpaceOnUse" id="svg_80" xlink:href="#svg_77"/>
  <linearGradient id="svg_77">
   <stop stop-color="#fafafa" offset="0" id="svg_79"/>
   <stop stop-color="#e6e6e6" offset="1" id="svg_78"/>
  </linearGradient>
  <radialGradient r="19.99999" fy="8.44977" fx="9.33309" cy="8.44977" cx="9.33309" gradientTransform="matrix(0,2.0478765964508057,-2.7410542964935303,-8.641225690553256e-8,75.98432922363281,27.382280349731445)" gradientUnits="userSpaceOnUse" id="svg_76" xlink:href="#svg_73"/>
  <linearGradient id="svg_73">
   <stop stop-color="#a3c0d0" id="svg_75" offset="0"/>
   <stop stop-color="#427da1" id="svg_74" offset="1"/>
  </linearGradient>
  <linearGradient y2="-0.01282" x2="0.24484" y1="1.01634" x1="0.24484" id="svg_72" xlink:href="#svg_69"/>
  <linearGradient id="svg_69">
   <stop stop-color="#2e4a5a" id="svg_71" offset="0"/>
   <stop stop-color="#6e8796" id="svg_70" offset="1"/>
  </linearGradient>
  <radialGradient gradientTransform="matrix(2.003783941268921,0,0,1.399999976158142,52.88044357299805,45.9845085144043)" gradientUnits="userSpaceOnUse" xlink:href="#svg_65" id="svg_68" fy="43.5" fx="4.99298" r="2.5" cy="43.5" cx="4.99298"/>
  <linearGradient id="svg_65">
   <stop stop-color="#181818" offset="0" id="svg_67"/>
   <stop stop-color="#181818" stop-opacity="0" offset="1" id="svg_66"/>
  </linearGradient>
  <radialGradient gradientTransform="matrix(-2.003783941268921,0,0,-1.399999976158142,194.11244201660156,80.15069580078125)" gradientUnits="userSpaceOnUse" xlink:href="#svg_61" id="svg_64" fy="43.5" fx="4.99298" r="2.5" cy="43.5" cx="4.99298"/>
  <linearGradient id="svg_61">
   <stop stop-color="#181818" offset="0" id="svg_63"/>
   <stop stop-color="#181818" stop-opacity="0" offset="1" id="svg_62"/>
  </linearGradient>
  <linearGradient xlink:href="#svg_56" id="svg_60" y2="-0.00008" x2="0.53779" y1="1.00396" x1="0.53779"/>
  <linearGradient id="svg_56">
   <stop stop-color="#181818" stop-opacity="0" offset="0" id="svg_59"/>
   <stop stop-color="#181818" offset="0.5" id="svg_58"/>
   <stop stop-color="#181818" stop-opacity="0" offset="1" id="svg_57"/>
  </linearGradient>
 </defs>
 <g>
  <title>background</title>
  <rect fill="none" id="canvas_background" height="58" width="184" y="-1" x="-1"/>
  <g display="none" overflow="visible" y="0" x="0" height="100%" width="100%" id="canvasGrid">
   <rect fill="url(#gridpattern)" stroke-width="0" y="0" x="0" height="100%" width="100%"/>
  </g>
 </g>
 <g>
  <title>Layer 1</title>
  <rect id="svg_1" height="56.00001" width="182" y="0" stroke-width="0" stroke="#022525" fill="#252525"/>

  <metadata id="svg_106">image/svg+xml</metadata>
  <g id="svg_108">
   <g transform="matrix(0.843434, 0, 0, 0.843434, -19.7214, -24.0417)" id="svg_93">
    <g display="inline" transform="matrix(1.1, 0, 0, 0.444445, -2.4, 25.1111)" id="svg_101">
     <g opacity="0.4" transform="matrix(1.05263, 0, 0, 1.28571, -1.26316, -13.4285)" id="svg_102">
      <rect fill="url(#svg_68)" width="5" height="7" x="65.11321" y="103.38451" id="svg_105"/>
      <rect fill="url(#svg_64)" width="5" height="7" x="-37.11321" y="-29.41853" transform="translate(0, 80.966) scale(-1)" id="svg_104"/>
      <rect fill="url(#svg_60)" width="28" height="7" x="37.11321" y="103.38451" id="svg_103"/>
     </g>
    </g>
    <rect fill="url(#svg_76)" stroke="url(#svg_72)" stroke-linecap="round" stroke-linejoin="round" stroke-miterlimit="4" stroke-dashoffset="0" width="39" height="39" rx="2.23222" ry="2.23222" x="35.89426" y="41.68716" id="svg_100"/>
    <path opacity="0.05" fill="#000000" fill-rule="nonzero" stroke-width="1.00179" d="m52.39426,43.18847a2.01651,2.01651 0 0 0 -2.03125,2.03125l0,3.96875l-1.15625,0a2.01651,2.01651 0 0 0 -1.5,3.375l5.0625,5.75c-0.06312,0.11078 -0.17872,0.24603 -0.21875,0.34375c-0.1959,0.47826 -0.25,0.83653 -0.25,1.21875l0,0.125l-0.09375,-0.09375c-0.27818,-0.27818 -0.59933,-0.52476 -1.09375,-0.71875c-0.24721,-0.09699 -0.53329,-0.177 -0.96875,-0.15625c-0.43546,0.02075 -1.05405,0.2103 -1.46875,0.625l-1.53125,1.53125c-0.41469,0.41469 -0.60425,1.03329 -0.625,1.46875c-0.02075,0.43546 0.05925,0.72154 0.15625,0.96875c0.19399,0.49443 0.44057,0.81557 0.71875,1.09375l0.09375,0.09375l-0.125,0c-0.38222,0 -0.74049,0.0541 -1.21875,0.25c-0.23913,0.09795 -0.53829,0.21499 -0.84375,0.53125c-0.30546,0.31626 -0.625,0.91479 -0.625,1.53125l0,2.1875c0,0.61646 0.31954,1.21499 0.625,1.53125c0.30546,0.31626 0.60462,0.4333 0.84375,0.53125c0.47826,0.1959 0.83653,0.25 1.21875,0.25l0.125,0l-0.09375,0.09375c-0.27817,0.27818 -0.52476,0.59933 -0.71875,1.09375c-0.09699,0.24721 -0.177,0.53329 -0.15625,0.96875c0.02075,0.43546 0.2103,1.05406 0.625,1.46875l1.53125,1.53125c0.41469,0.4147 1.03329,0.60424 1.46875,0.625c0.43546,0.02076 0.72154,-0.05926 0.96875,-0.15625c0.49442,-0.19399 0.81557,-0.44057 1.09375,-0.71875l0.09375,-0.09375l0,0.125c0,0.38222 0.0541,0.7405 0.25,1.21875c0.09795,0.23913 0.21499,0.53829 0.53125,0.84375c0.31626,0.30546 0.91478,0.625 1.53125,0.625l2.1875,0c0.61647,0 1.21499,-0.31953 1.53125,-0.625c0.31626,-0.30547 0.4333,-0.60462 0.53125,-0.84375c0.1959,-0.47825 0.25,-0.83653 0.25,-1.21875l0,-0.125l0.09375,0.09375c0.27818,0.27817 0.59933,0.52476 1.09375,0.71875c0.24721,0.09699 0.53329,0.177 0.96875,0.15625c0.43546,-0.02075 1.05406,-0.2103 1.46875,-0.625l1.53125,-1.53125c0.4147,-0.41469 0.60424,-1.03329 0.625,-1.46875c0.02076,-0.43546 -0.05926,-0.72154 -0.15625,-0.96875c-0.19399,-0.49442 -0.44057,-0.81557 -0.71875,-1.09375l-0.09375,-0.09375l0.125,0c0.38222,0 0.74049,-0.0541 1.21875,-0.25c0.23913,-0.09795 0.53829,-0.21499 0.84375,-0.53125c0.30546,-0.31626 0.625,-0.91479 0.625,-1.53125l0,-2.1875c0,-0.61646 -0.31954,-1.21499 -0.625,-1.53125c-0.30546,-0.31626 -0.60462,-0.4333 -0.84375,-0.53125c-0.47826,-0.1959 -0.83653,-0.25 -1.21875,-0.25l-0.125,0l0.09375,-0.09375c0.27818,-0.27818 0.52476,-0.59933 0.71875,-1.09375c0.09699,-0.24721 0.177,-0.53329 0.15625,-0.96875c-0.02075,-0.43546 -0.2103,-1.05406 -0.625,-1.46875l-1.53125,-1.53125c-0.41469,-0.41469 -1.03329,-0.60424 -1.46875,-0.625c-0.43546,-0.02076 -0.72154,0.05925 -0.96875,0.15625c-0.49443,0.19399 -0.81557,0.44057 -1.09375,0.71875l-0.09375,0.09375l0,-0.125c0,-0.38222 -0.0541,-0.74049 -0.25,-1.21875c-0.09112,-0.22245 -0.22813,-0.50018 -0.5,-0.78125l4.71875,-5.3125a2.01651,2.01651 0 0 0 -1.5,-3.375l-1.15625,0l0,-3.96875a2.01651,2.01651 0 0 0 -2.03125,-2.03125l-6,0zm3.3125,24.28125c0.4271,0 0.75,0.3229 0.75,0.75c0,0.4271 -0.3229,0.75 -0.75,0.75c-0.42709,0 -0.75,-0.32291 -0.75,-0.75c0,-0.42709 0.32291,-0.75 0.75,-0.75z" id="svg_99"/>
    <path opacity="0.05" fill="#000000" fill-rule="nonzero" stroke-width="1.00179" d="m52.30051,44.25097a0.96385,0.96385 0 0 0 -0.875,0.96875l0,5.03125l-2.21875,0a0.96385,0.96385 0 0 0 -0.71875,1.59375l5.78125,6.53125c-0.15881,0.0616 -0.34184,0.0951 -0.4375,0.1875c-0.16916,0.16339 -0.25297,0.32342 -0.3125,0.46875c-0.11906,0.29066 -0.15625,0.56675 -0.15625,0.84375l0,1.65625c-0.25059,0.08983 -0.48288,0.19727 -0.71875,0.3125l-1.1875,-1.1875c-0.19965,-0.19965 -0.42143,-0.35209 -0.71875,-0.46875c-0.14866,-0.05833 -0.32967,-0.10485 -0.5625,-0.09375c-0.23283,0.0111 -0.53583,0.09833 -0.75,0.3125l-1.53125,1.53125c-0.21417,0.21417 -0.3014,0.51717 -0.3125,0.75c-0.0111,0.23283 0.03542,0.41384 0.09375,0.5625c0.11666,0.29732 0.2691,0.5191 0.46875,0.71875l1.1875,1.1875c-0.11523,0.23587 -0.22267,0.46816 -0.3125,0.71875l-1.65625,0c-0.277,0 -0.55309,0.03719 -0.84375,0.15625c-0.14533,0.05953 -0.30536,0.14334 -0.46875,0.3125c-0.16339,0.16916 -0.3125,0.46403 -0.3125,0.78125l0,2.1875c0,0.31722 0.14911,0.61209 0.3125,0.78125c0.16339,0.16916 0.32342,0.25297 0.46875,0.3125c0.29066,0.11906 0.56675,0.15625 0.84375,0.15625l1.65625,0c0.08983,0.25059 0.19727,0.48288 0.3125,0.71875l-1.1875,1.1875c-0.19965,0.19965 -0.35209,0.42143 -0.46875,0.71875c-0.05833,0.14866 -0.10485,0.32967 -0.09375,0.5625c0.0111,0.23283 0.09833,0.53583 0.3125,0.75l1.53125,1.53125c0.21417,0.21417 0.51717,0.3014 0.75,0.3125c0.23283,0.0111 0.41384,-0.03542 0.5625,-0.09375c0.29732,-0.11666 0.5191,-0.2691 0.71875,-0.46875l1.1875,-1.1875c0.23587,0.11523 0.46816,0.22267 0.71875,0.3125l0,1.65625c0,0.277 0.03719,0.55309 0.15625,0.84375c0.05953,0.14533 0.14334,0.30536 0.3125,0.46875c0.16916,0.16339 0.46403,0.3125 0.78125,0.3125l2.1875,0c0.31722,0 0.61209,-0.14911 0.78125,-0.3125c0.16916,-0.16339 0.25297,-0.32342 0.3125,-0.46875c0.11906,-0.29066 0.15625,-0.56675 0.15625,-0.84375l0,-1.65625c0.25059,-0.08983 0.48288,-0.19727 0.71875,-0.3125l1.1875,1.1875c0.19965,0.19965 0.42143,0.35209 0.71875,0.46875c0.14866,0.05833 0.32967,0.10485 0.5625,0.09375c0.23283,-0.0111 0.53583,-0.09833 0.75,-0.3125l1.53125,-1.53125c0.21417,-0.21417 0.3014,-0.51717 0.3125,-0.75c0.0111,-0.23283 -0.03542,-0.41384 -0.09375,-0.5625c-0.11666,-0.29732 -0.2691,-0.5191 -0.46875,-0.71875l-1.1875,-1.1875c0.11523,-0.23587 0.22267,-0.46816 0.3125,-0.71875l1.65625,0c0.277,0 0.55309,-0.03719 0.84375,-0.15625c0.14533,-0.05953 0.30536,-0.14334 0.46875,-0.3125c0.16339,-0.16916 0.3125,-0.46403 0.3125,-0.78125l0,-2.1875c0,-0.31722 -0.14911,-0.61209 -0.3125,-0.78125c-0.16339,-0.16916 -0.32342,-0.25297 -0.46875,-0.3125c-0.29066,-0.11906 -0.56675,-0.15625 -0.84375,-0.15625l-1.65625,0c-0.08983,-0.25059 -0.19727,-0.48288 -0.3125,-0.71875l1.1875,-1.1875c0.19965,-0.19965 0.35209,-0.42143 0.46875,-0.71875c0.05833,-0.14866 0.10485,-0.32967 0.09375,-0.5625c-0.0111,-0.23283 -0.09833,-0.53583 -0.3125,-0.75l-1.53125,-1.53125c-0.21417,-0.21417 -0.51717,-0.3014 -0.75,-0.3125c-0.23283,-0.0111 -0.41384,0.03542 -0.5625,0.09375c-0.29732,0.11666 -0.5191,0.2691 -0.71875,0.46875l-1.1875,1.1875c-0.23587,-0.11523 -0.46816,-0.22267 -0.71875,-0.3125l0,-1.65625c0,-0.277 -0.03719,-0.55309 -0.15625,-0.84375c-0.05953,-0.14533 -0.14334,-0.30536 -0.3125,-0.46875c-0.16916,-0.16339 -0.46403,-0.3125 -0.78125,-0.3125l-0.15625,0l5.65625,-6.40625a0.96385,0.96385 0 0 0 -0.71875,-1.59375l-2.21875,0l0,-5.03125a0.96385,0.96385 0 0 0 -0.96875,-0.96875l-6,0a0.96385,0.96385 0 0 0 -0.09375,0zm3.40625,22.15625c1.00211,0 1.8125,0.81039 1.8125,1.8125c0,1.00211 -0.81039,1.8125 -1.8125,1.8125c-1.00211,0 -1.8125,-0.81039 -1.8125,-1.8125c0,-1.00211 0.81039,-1.8125 1.8125,-1.8125z" id="svg_98"/>
    <path fill="url(#svg_80)" fill-rule="nonzero" stroke-width="1.00179" d="m52.39426,45.21972l0,6l-3.1875,0l6.1875,7l6.1875,-7l-3.1875,0l0,-6l-6,0zm2.21875,14c-0.17289,0 -0.28125,0.29492 -0.28125,0.65625l0,2.28125c-0.69605,0.1585 -1.35155,0.44237 -1.9375,0.8125l-1.625,-1.625c-0.2555,-0.2555 -0.534,-0.37225 -0.65625,-0.25l-1.53125,1.53125c-0.12225,0.12225 -0.0055,0.40075 0.25,0.65625l1.625,1.625c-0.37013,0.58595 -0.654,1.24145 -0.8125,1.9375l-2.28125,0c-0.36133,0 -0.65625,0.10836 -0.65625,0.28125l0,2.1875c0,0.17289 0.29492,0.28125 0.65625,0.28125l2.28125,0c0.1585,0.69605 0.44237,1.35155 0.8125,1.9375l-1.625,1.625c-0.2555,0.2555 -0.37225,0.534 -0.25,0.65625l1.53125,1.53125c0.12225,0.12225 0.40075,0.0055 0.65625,-0.25l1.625,-1.625c0.58595,0.37013 1.24145,0.654 1.9375,0.8125l0,2.28125c0,0.36133 0.10836,0.65625 0.28125,0.65625l2.1875,0c0.17289,0 0.28125,-0.29492 0.28125,-0.65625l0,-2.28125c0.69605,-0.1585 1.35155,-0.44237 1.9375,-0.8125l1.625,1.625c0.2555,0.2555 0.534,0.37225 0.65625,0.25l1.53125,-1.53125c0.12225,-0.12225 0.0055,-0.40075 -0.25,-0.65625l-1.625,-1.625c0.37013,-0.58595 0.654,-1.24145 0.8125,-1.9375l2.28125,0c0.36133,0 0.65625,-0.10836 0.65625,-0.28125l0,-2.1875c0,-0.17289 -0.29492,-0.28125 -0.65625,-0.28125l-2.28125,0c-0.1585,-0.69605 -0.44237,-1.35155 -0.8125,-1.9375l1.625,-1.625c0.2555,-0.2555 0.37225,-0.534 0.25,-0.65625l-1.53125,-1.53125c-0.12225,-0.12225 -0.40075,-0.0055 -0.65625,0.25l-1.625,1.625c-0.58595,-0.37013 -1.24145,-0.654 -1.9375,-0.8125l0,-2.28125c0,-0.36133 -0.10836,-0.65625 -0.28125,-0.65625l-2.1875,0zm1.09375,6.21875c1.52862,0 2.78125,1.25264 2.78125,2.78125c0,1.52862 -1.25263,2.78125 -2.78125,2.78125c-1.52861,0 -2.78125,-1.25263 -2.78125,-2.78125c0,-1.52861 1.25264,-2.78125 2.78125,-2.78125z" id="svg_97"/>
    <rect opacity="0.4" fill="none" stroke="url(#svg_84)" stroke-width="1" stroke-linecap="round" stroke-linejoin="round" stroke-miterlimit="4" stroke-dashoffset="0" width="36.99999" height="37.00001" rx="1.36519" ry="1.36519" x="36.89426" y="42.71971" id="svg_96"/>
    <path fill="none" stroke="url(#svg_88)" stroke-width="0.99829" stroke-miterlimit="4" stroke-dashoffset="0" d="m60.32064,51.68639l-4.92638,5.71091l-5.03691,-5.67758l2.53691,0l0,-6l5,0l0,6l2.42638,-0.03333z" id="svg_95"/>
    <path fill="none" stroke="url(#svg_92)" d="m54.83176,59.68847c-0.01166,0.05381 -0.03125,0.1002 -0.03125,0.1875l0,2.28125a0.48185,0.48185 0 0 1 -0.375,0.46875c-0.63847,0.14538 -1.23842,0.40711 -1.78125,0.75a0.48185,0.48185 0 0 1 -0.59375,-0.0625l-1.625,-1.625c-0.05335,-0.05335 -0.08355,-0.06633 -0.125,-0.09375l-1.21875,1.21875c0.02742,0.04145 0.0404,0.07165 0.09375,0.125l1.625,1.625a0.48185,0.48185 0 0 1 0.0625,0.59375c-0.34289,0.54283 -0.60461,1.14278 -0.75,1.78125a0.48185,0.48185 0 0 1 -0.46875,0.375l-2.28125,0c-0.08729,0 -0.13369,0.01959 -0.1875,0.03125l0,1.75c0.05381,0.01166 0.10021,0.03125 0.1875,0.03125l2.28125,0a0.48185,0.48185 0 0 1 0.46875,0.375c0.14539,0.63847 0.40711,1.23842 0.75,1.78125a0.48185,0.48185 0 0 1 -0.0625,0.59375l-1.625,1.625c-0.05335,0.05335 -0.06633,0.08355 -0.09375,0.125l1.21875,1.21875c0.04145,-0.02742 0.07165,-0.0404 0.125,-0.09375l1.625,-1.625a0.48185,0.48185 0 0 1 0.59375,-0.0625c0.54283,0.34289 1.14278,0.60461 1.78125,0.75a0.48185,0.48185 0 0 1 0.375,0.46875l0,2.28125c0,0.08729 0.01959,0.1337 0.03125,0.1875l1.75,0c0.01166,-0.0538 0.03125,-0.10021 0.03125,-0.1875l0,-2.28125a0.48185,0.48185 0 0 1 0.375,-0.46875c0.63847,-0.14539 1.23842,-0.40711 1.78125,-0.75a0.48185,0.48185 0 0 1 0.59375,0.0625l1.625,1.625c0.05335,0.05335 0.08355,0.06633 0.125,0.09375l1.21875,-1.21875c-0.02742,-0.04145 -0.0404,-0.07165 -0.09375,-0.125l-1.625,-1.625a0.48185,0.48185 0 0 1 -0.0625,-0.59375c0.34289,-0.54283 0.60461,-1.14278 0.75,-1.78125a0.48185,0.48185 0 0 1 0.46875,-0.375l2.28125,0c0.08729,0 0.1337,-0.01959 0.1875,-0.03125l0,-1.75c-0.0538,-0.01166 -0.1002,-0.03125 -0.1875,-0.03125l-2.28125,0a0.48185,0.48185 0 0 1 -0.46875,-0.375c-0.14539,-0.63847 -0.40711,-1.23842 -0.75,-1.78125a0.48185,0.48185 0 0 1 0.0625,-0.59375l1.625,-1.625c0.05335,-0.05335 0.06633,-0.08355 0.09375,-0.125l-1.21875,-1.21875c-0.04145,0.02742 -0.07165,0.0404 -0.125,0.09375l-1.625,1.625a0.48185,0.48185 0 0 1 -0.59375,0.0625c-0.54283,-0.34289 -1.14278,-0.60462 -1.78125,-0.75a0.48185,0.48185 0 0 1 -0.375,-0.46875l0,-2.28125c0,-0.0873 -0.01959,-0.13369 -0.03125,-0.1875l-1.75,0zm0.875,5.28125c1.79183,0 3.25,1.45817 3.25,3.25c0,1.79183 -1.45817,3.25 -3.25,3.25c-1.79183,0 -3.25,-1.45817 -3.25,-3.25c0,-1.79183 1.45817,-3.25 3.25,-3.25z" id="svg_94"/>
   </g>
  </g>
  <text transform="matrix(0.549723, 0, 0, 0.549723, 29.488, 1.8718)" xml:space="preserve" text-anchor="start" font-family="Helvetica, Arial, sans-serif" font-size="24" id="svg_109" y="28.6382" x="46.67081" stroke-width="0" stroke="#000000" fill="#ffffff">Download as an</text>
  <text xml:space="preserve" text-anchor="start" font-family="Helvetica, Arial, sans-serif" font-size="24" id="svg_110" y="43" x="55.5" stroke-width="0" stroke="#022525" fill="#ffffff">AppImage</text>
 </g>
</svg>