<svg width="300" height="300" xmlns="http://www.w3.org/2000/svg" class="iconLeft">
 <!---->
 <defs>
  <!---->
  <linearGradient y2="0%" x2="100%" y1="0%" x1="0%" id="5c86ca4d-8595-4d7d-934b-2ef8968a991b" gradientTransform="rotate(25)">
   <stop stop-color="#01648B" offset="0%"/>
   <stop stop-color="#5BD0A4" offset="100%"/>
  </linearGradient>
 </defs>
 <defs>
  <!---->
 </defs>

 <!---->
 <g>
 <rect fill="none" id="canvas_background" height="602" width="802" y="-1" x="-1"/>
 </g>
 <g>
  <g transform="matrix(3.05589, 0, 0, 3.05589, -618.867, 530.856)" fill="url(#5c86ca4d-8595-4d7d-934b-2ef8968a991b)" id="a1c8ecc0-781b-479f-a39f-09a1baf620c0">
   <path id="svg_3" d="m244.591141,-129.337433c0,1.003998 0.813019,1.816017 1.81604,1.816017a1.813,1.813 0 0 0 1.813965,-1.81501l0,-22.592026a1.815,1.815 0 0 0 -3.628967,0l-0.001038,22.591019zm-7.677979,2.206001a2.027,2.027 0 0 0 3.596008,-1.871986l-9.876007,-18.965012a2.026,2.026 0 0 0 -2.734009,-0.861023a2.026,2.026 0 0 0 -0.860992,2.733002l9.875,18.965019zm-5.832001,5.542023c1,0.724976 2.399994,0.505981 3.127991,-0.496002c0.727997,-1 0.506012,-2.400024 -0.494995,-3.125l-16.313995,-11.86602a2.239,2.239 0 1 0 -2.634003,3.620972l16.315002,11.866051zm-2.745026,7.95697a2.45,2.45 0 0 0 2.801025,-2.038971a2.453,2.453 0 0 0 -2.041016,-2.803009l-18.732971,-2.938995a2.45,2.45 0 0 0 -2.801025,2.039001a2.453,2.453 0 0 0 2.041016,2.802979l18.732971,2.938995zm1.406006,8.900032a2.663,2.663 0 0 0 1.658997,-3.381012a2.666,2.666 0 0 0 -3.379974,-1.660004l-16.799011,5.73999a2.663,2.663 0 0 0 -1.658997,3.381012a2.665,2.665 0 0 0 3.378998,1.660004l16.799988,-5.73999zm5.328003,7.151978a2.874,2.874 0 1 0 -4.102966,-4.026978l-11.587036,11.806976a2.875,2.875 0 0 0 4.104004,4.027008l11.585999,-11.807007zm8.259033,4.071014a3.087,3.087 0 0 0 -2,-3.881012a3.084,3.084 0 0 0 -3.879028,2l-4.671997,14.604004a3.087,3.087 0 0 0 5.879028,1.878998l4.671997,-14.60199zm9.906982,-0.276001a3.3,3.3 0 0 0 -3.815002,-2.686005a3.297,3.297 0 0 0 -2.684998,3.812988l2.414978,13.914001a3.3,3.3 0 0 0 3.813019,2.686005a3.3,3.3 0 0 0 2.686005,-3.812988l-2.414001,-13.914001zm8.866989,-4.766998a3.512,3.512 0 0 0 -4.898987,-0.795013a3.511,3.511 0 0 0 -0.795044,4.900024l7.550049,10.474976a3.514,3.514 0 0 0 4.898987,0.796997a3.512,3.512 0 0 0 0.794983,-4.899994l-7.549988,-10.47699zm5.919983,-8.253998a3.722,3.722 0 0 0 -5.042969,1.507996a3.722,3.722 0 0 0 1.508972,5.040985l10.299988,5.557007a3.722,3.722 0 0 0 5.041992,-1.507996a3.724,3.724 0 0 0 -1.508972,-5.042999l-10.299011,-5.554993zm1.314026,-10.377022a3.934,3.934 0 0 0 -3.934021,3.934021a3.936,3.936 0 0 0 3.934021,3.933998l10.490967,0a3.937,3.937 0 0 0 3.934021,-3.933998a3.936,3.936 0 0 0 -3.934021,-3.934021l-10.490967,0zm24.143982,-26.10601l-9.525024,0l0,17.041008a4.234,4.234 0 0 1 -4.235962,4.237l-10.083008,0a4.238,4.238 0 0 1 -4.236023,-4.237l0,-17.041008l-9.41597,0c-2.329987,0 -3.127991,-1.549011 -1.772003,-3.449005l18.056992,-25.277969c1.35498,-1.899994 3.570007,-1.899994 4.926025,0l18.057983,25.277969c1.35498,1.899994 0.555969,3.449005 -1.77301,3.449005z"/>
  </g>
 </g>
</svg>
