<svg width="300" height="300" xmlns="http://www.w3.org/2000/svg" class="iconAbove">
 <!---->
 <defs>
  <!---->
 </defs>
 <defs>
  <!---->
 </defs>
 <defs>
  <!---->
 </defs>
 <!---->
 <g>
  <title>background</title>
  <rect fill="none" id="canvas_background" height="602" width="802" y="-1" x="-1"/>
 </g>
 <g>
  <title>Layer 1</title>
  <g fill="#ffffff" id="213f0ca1-b145-44b7-93b1-14ea0bbb5f4d">
   <path id="svg_2"/>
  </g>
  <g fill="#000000" id="2842b450-05a6-45b8-957b-552ce8ec93b5">
   <path id="svg_3" d="m128.371277,135.924713c0,3.071487 2.487167,5.555573 5.555603,5.555573a5.546402,5.546402 0 0 0 5.549454,-5.552505l0,-69.114349a5.552521,5.552521 0 0 0 -11.10199,0l-0.003067,69.111282zm-23.488823,6.748688a6.201079,6.201079 0 0 0 11.001022,-5.726898l-30.213051,-58.018486a6.19802,6.19802 0 0 0 -8.363968,-2.63401a6.19802,6.19802 0 0 0 -2.63401,8.360909l30.210007,58.018486zm-17.841492,16.954315c3.059242,2.217941 7.342178,1.547974 9.569298,-1.517395c2.227127,-3.059235 1.547974,-7.342163 -1.51432,-9.56012l-49.90844,-36.300941a6.849638,6.849638 0 1 0 -8.058037,11.077507l49.911499,36.300949zm-8.397614,24.342361a7.495138,7.495138 0 0 0 8.568932,-6.237793a7.504315,7.504315 0 0 0 -6.243912,-8.575043l-57.308741,-8.991104a7.495138,7.495138 0 0 0 -8.56893,6.237793a7.504315,7.504315 0 0 0 6.243908,8.575043l57.308743,8.991104zm4.301285,27.227234a8.146756,8.146756 0 0 0 5.075287,-10.343277a8.155933,8.155933 0 0 0 -10.340233,-5.078354l-51.392172,17.560028a8.146756,8.146756 0 0 0 -5.075279,10.343307a8.152874,8.152874 0 0 0 10.337172,5.078323l51.395226,-17.560028zm16.299629,21.879684a8.792255,8.792255 0 1 0 -12.552055,-12.319565l-35.447411,36.120438a8.795315,8.795315 0 0 0 12.555115,12.31958l35.444351,-36.120453zm25.266273,12.454163a9.443873,9.443873 0 0 0 -6.118484,-11.872894a9.434696,9.434696 0 0 0 -11.866791,6.118469l-14.29277,44.677124a9.443873,9.443873 0 0 0 17.985275,5.748322l14.29277,-44.671021zm30.307884,-0.84436a10.095491,10.095491 0 0 0 -11.671005,-8.217102a10.086313,10.086313 0 0 0 -8.214066,11.664871l7.388077,42.566269a10.095491,10.095491 0 0 0 11.664886,8.217133a10.095491,10.095491 0 0 0 8.217117,-11.664886l-7.38501,-42.566284zm27.126282,-14.583389a10.744051,10.744051 0 0 0 -14.987213,-2.432083a10.740991,10.740991 0 0 0 -2.432098,14.99028l23.09726,32.045517a10.750169,10.750169 0 0 0 14.987198,2.438232a10.744051,10.744051 0 0 0 2.432114,-14.990295l-23.09726,-32.051651zm18.110687,-25.250961a11.386491,11.386491 0 0 0 -15.427734,4.613327a11.386491,11.386491 0 0 0 4.616394,15.421631l31.510162,17.000198a11.386491,11.386491 0 0 0 15.424683,-4.613327a11.39261,11.39261 0 0 0 -4.616379,-15.42775l-31.507126,-16.99408zm4.019852,-31.745728a12.035049,12.035049 0 0 0 -12.035049,12.035049a12.041168,12.041168 0 0 0 12.035049,12.035049l32.094482,0a12.044228,12.044228 0 0 0 12.035034,-12.035049a12.041168,12.041168 0 0 0 -12.035034,-12.035049l-32.094482,0zm73.862289,-79.864517l-29.139267,0l0,52.132507a12.952823,12.952823 0 0 1 -12.958954,12.96199l-30.846313,0a12.965058,12.965058 0 0 1 -12.958939,-12.96199l0,-52.132507l-28.805786,0c-7.128021,0 -9.569305,-4.738762 -5.420975,-10.551323l55.240692,-77.331463c4.145279,-5.812555 10.921494,-5.812555 15.069824,0l55.243759,77.331463c4.145233,5.812561 1.700928,10.551323 -5.424042,10.551323z"/>
  </g>
 </g>
</svg>